<svg xmlns="http://www.w3.org/2000/svg" width="512" height="512" viewBox="0 0 384 384"><g fill-rule="evenodd"><path d="m37.672 0h308.66c20.805 0 37.672 16.867 37.672 37.672v308.66c0 20.805-16.867 37.672-37.672 37.672h-308.66c-20.805 0-37.672-16.867-37.672-37.672v-308.66c0-20.805 16.867-37.672 37.672-37.672" fill="#79c843"/><path d="m150 52.36c-5.102 0-9.727 1.543-13.637 5.453l-36.547 36.547c-7.809 7.82-7.813 20.547 0 28.363l1.637 1.637c.34.398.715.715 1.094 1.09.406.496.629 1.176 1.09 1.637l1.637 1.094c.34.395.715.715 1.09 1.09.473.59 1.09 1.09 1.637 1.637.34.395.715.715 1.09 1.09.406.492.629 1.176 1.094 1.637l1.633 1.09c.34.398.719.715 1.094 1.09.426.527.602 1.148 1.09 1.637l1.637 1.094c.34.395.715.715 1.09 1.09l1.637 1.637c.34.398.715.715 1.09 1.09.41.492.633 1.176 1.094 1.637l1.637 1.09c.336.398.715.715 1.09 1.094.469.59 1.09 1.086 1.637 1.633.34.398.715.719 1.09 1.094.406.492.629 1.176 1.09 1.637l1.637 1.09c.34.398.715.715 1.09 1.09.43.523.605 1.148 1.094 1.637h.543c.34.398.715.715 1.094 1.09.34.398.715.715 1.09 1.094l1.637 1.637c.34.395.715.715 1.09 1.09.406.492.629 1.176 1.09 1.637l1.637 1.09c.34.398.715.715 1.094 1.09l1.633 1.637c.34.398.719.715 1.094 1.09.406.496.629 1.176 1.09 1.637l1.637 1.094c.34.395.715.715 1.09 1.09.473.59 1.09 1.09 1.637 1.637.34.398.715.715 1.09 1.09.41.492.633 1.176 1.094 1.637l1.637 1.09c.34.398.715.715 1.09 1.094.426.523.602 1.145 1.09 1.633l1.637 1.094c.34.395.715.715 1.09 1.09l1.637 1.637c.34.398.715.715 1.09 1.09.41.496.633 1.176 1.094 1.637l1.637 1.09c.34.398.715.715 1.09 1.094l1.637 1.637c.34.395.715.715 1.09 1.09l.547.543c.262.301.258.809.543 1.094l1.637 1.09-69.27 68.73c-7.809 7.82-7.813 20.547 0 28.363l1.637 1.637c.34.398.715.715 1.094 1.09.34.398.715.719 1.09 1.094l1.637 1.637c.34.395.715.715 1.09 1.09l1.637 1.637c.34.398.715.715 1.09 1.09.34.398.715.715 1.094 1.09l1.633 1.637c.34.398.719.715 1.094 1.094.406.492.629 1.172 1.09 1.633l1.637 1.094c.34.395.715.715 1.09 1.09l1.637 1.637c.34.398.715.715 1.09 1.09.41.496.633 1.176 1.094 1.637l1.637 1.09c.336.398.715.715 1.09 1.094.469.59 1.09 1.086 1.637 1.637.34.395.715.715 1.09 1.09.34.398.715.715 1.09 1.09l1.637 1.637c.34.398.715.715 1.09 1.09.41.496.633 1.176 1.094 1.637h.543c.34.398.715.715 1.094 1.09.34.398.715.719 1.09 1.094l2.727 2.727c.406.492.629 1.176 1.09 1.637h.547l1.09 1.09 1.094 1.09 1.633 1.637 2.184 2.184v.543l1.09.547 4.363 4.363v.547l1.094 1.09.543.547 1.094.543 1.09 1.094c.406.492.629 1.172 1.09 1.637h.547l6 6v.543l1.09 1.09 1.637 1.094 3.816 3.816v.547l1.094.543.543.547 1.094 1.09 1.633 1.637 1.094 1.094v.543l1.637 1.637h.543l1.637 1.637c.406.492.629 1.176 1.09 1.637h.547l1.09 1.09 1.094 1.09 1.637 1.637 1.09 1.094 1.09 1.09v.547l1.09.543 4.363 4.363v.547l1.094 1.09 1.09.547.547.543 1.09 1.094 1.09 1.09h151.64c20.871 0 37.637-16.766 37.637-37.637v-68.73l-1.637-1.637v-.547l-.547-.543h-.543l-.547-.547v-.547l-1.09-1.09-.547-.543-.543-.547-1.637-1.637h-.547l-.547-.547v-.543l-.543-.547h-.547l-.543-.547v-.543l-1.094-1.09-.543-.547-.547-.547-.547-.543h-.543l-1.637-1.637v-.547l-.547-.547h-.543l-.547-.543-2.184-2.184v-.543l-.543-.547h-.547l-1.637-1.637v-.547l-1.09-1.09-.547-.543-1.09-1.094h-.547l-.543-.543v-.547l-.547-.547h-.547l-.543-.543v-.547l-1.637-1.637-.547-.543-.543-.547-1.094-1.09h-.543l-.547-.547v-.547l-.547-.543h-.543l-.547-.547v-.547l-1.09-1.09-.547-.543-.543-.547-.547-.547h-.547l-1.637-1.637v-.543l-.543-.547-1.09-1.09h-.547l-1.637-1.637v-.547l-.547-.543h-.543l-.547-.547v-.547l-3.816-3.816h-.547l-.547-.547v-.543l-.543-.547h-.547l-.547-.547v-.543l-1.09-1.094-1.09-1.09-.547-.543-1.09-1.094h-.547l-2.18-2.18v-.547l-1.637-1.637-.547-.543-.543-.547h-.547l-1.637-1.637v-.547l-.547-.543-.543-.547-.547-.547h-.543l-.547-.543-1.09-1.09v-.547l-.547-.547h-.547l-.543-.543v-.547l-1.094-1.09-.543-.547-1.09-1.09-1.094-1.09h-.543l-.547-.547v-.547l-.547-.543h-.543l-.547-.547v-.547l-3.816-3.816h-.547l-2.184-2.184v-.543l-1.09-1.094-1.09-1.09-.547-.543h-.543l-1.637-1.637v-.547l-.547-.547-.547-.543-.543-.547h-.547l-.543-.547-.547-.543-.547-.547v-.543l-.543-.547h-.547l-.547-.547v-.543l-1.09-1.094-.547-.543-.543-.547-1.637-1.637h-.547c-.191-.191-.348-.348-.543-.543v-.547l-.547-.547h-.547l-.543-.543v-.547l-1.094-1.09-.543-.547-1.09-1.09h-.547l-2.184-2.184c-.188-.188-.352-.367-.543-.543l-1.637-1.637v-.547c-.449-.441-.633-.637-1.09-1.09h-.547l-.547-.547c-.273-.27-.27-.273-.543-.543l-1.094-1.094v-.543c-.516-.516-.566-.574-1.09-1.094l-1.637-1.637c-.445-.441-.633-.637-1.09-1.09h-.547l-.543-.543c-.273-.273-.273-.277-.547-.547l-1.09-1.09v-.547c-.52-.512-.57-.574-1.094-1.09-.82-.816-.813-.82-1.633-1.637-.449-.441-.633-.637-1.094-1.09h-.543c-.188-.191-.355-.371-.547-.547-.273-.27-.273-.273-.547-.547l-1.09-1.09v-.547c-.445-.441-.633-.637-1.09-1.09h-.547c-.273-.27-.27-.273-.543-.547-.277-.27-.273-.273-.547-.543-.543-.535-.555-.559-1.09-1.09v-.547c-.543-.535-.555-.559-1.094-1.09-.816-.813-.813-.824-1.637-1.637-.445-.441-.629-.637-1.09-1.094h-.543c-.273-.266-.277-.277-.547-.543-.273-.273-.273-.273-.547-.547-.539-.535-.551-.559-1.09-1.09v-.547c-.516-.512-.566-.57-1.09-1.09-.82-.813-.816-.824-1.637-1.637-.445-.441-.633-.637-1.09-1.09-.113-.113-.434.109-.547 0-.188-.188-.355-.367-.547-.547-.273-.27-.27-.273-.543-.543-.813-.805-.832-.844-1.637-1.637-.195-.195-.352-.363-.547-.547-.547-.543-.543-.551-1.09-1.09-1.098-1.086-1.09-1.102-2.184-2.184-.188-.188-.352-.367-.543-.543-.422-.418-.672-.129-1.094-.547-.375-.375-.699-.754-1.09-1.09-.41-.406-.137-.688-.547-1.094-.547-.539-.543-.547-1.09-1.09-1.094-1.086-1.09-1.102-2.18-2.18-.188-.191-.355-.371-.547-.547-.547-.543-.543-.551-1.09-1.09-.824-.816-.816-.824-1.637-1.637-.547-.543-.543-.551-1.09-1.094-1.098-1.082-1.09-1.098-2.184-2.18-.191-.191-.348-.363-.547-.547-.547-.543-.543-.547-1.09-1.09-1.094-1.086-1.09-1.102-2.18-2.184-.191-.188-.355-.367-.547-.543-1.098-1.086-1.09-1.102-2.184-2.184-.191-.191-.348-.363-.543-.543-.551-.543-.543-.551-1.094-1.094-1.094-1.082-1.086-1.098-2.18-2.18-.188-.188-.355-.367-.547-.547-.547-.543-.543-.547-1.09-1.09-.82-.813-.816-.824-1.637-1.637l-3.273-3.273c-.188-.188-.352-.367-.543-.543l-3.82-3.82-3.273-2.727c-.199-.176-.34-.379-.543-.547-.402-.398-.672-.734-1.094-1.09l-2.727-2.727c-.375-.375-.699-.754-1.09-1.09v-.547c-.508-.508-1.102-.656-1.637-1.09-.402-.402-.672-.734-1.09-1.094l-2.727-2.727c-.379-.375-.699-.754-1.094-1.09l-1.637-1.637c-.398-.402-.668-.734-1.09-1.09l-2.18-2.184c-.199-.176-.344-.379-.547-.543-.375-.379-.699-.758-1.09-1.094l-4.91-4.906c-.199-.176-.344-.383-.547-.547-.398-.402-.672-.734-1.09-1.09l-2.727-2.73c-.375-.375-.699-.754-1.09-1.09l-1.637-1.637c-.402-.402-.672-.734-1.094-1.09l-2.727-2.727c-.375-.375-.699-.754-1.09-1.09l-1.637-1.637c-.402-.402-.672-.734-1.09-1.094l-1.09-1.637c-3.91-3.91-9.08-5.453-14.184-5.453" fill-opacity=".235"/><path d="m150.22 52.36c-5.102 0-9.883 1.77-13.793 5.68l-36.508 36.508c-7.82 7.82-7.82 20.574 0 28.395l68.961 68.961-68.961 68.961c-7.82 7.82-7.82 20.574 0 28.395l36.508 36.508c7.82 7.82 19.766 7.82 27.586 0l120.07-120.07c7.82-7.82 7.82-20.574 0-28.395l-37.32-37.32-82.75-81.941c-3.91-3.91-8.691-5.68-13.793-5.68" fill="#fff"/></g></svg>