<svg xmlns="http://www.w3.org/2000/svg" viewBox="0 0 512 512"><g transform="matrix(1.0021 0 0 1.0021-.059 0)"><text y="1382.24" x="-27070.2" word-spacing="0" line-height="125%" letter-spacing="0" font-size="4838.07" font-family="Gentium Book Basic"><tspan y="1382.24" x="-27070.2"/></text><text transform="scale(4.0128.2492)" font-size="1757.98" y="-7525.5" x="632.61" font-family="Arial" text-anchor="middle"/><text y="2292.35" x="-27204.66" word-spacing="0" line-height="125%" letter-spacing="0" font-size="4838.07" font-family="Gentium Book Basic"><tspan y="2292.35" x="-27204.66"/></text><text transform="scale(4.0128.2492)" font-size="1757.98" y="-3873.22" x="599.14" font-family="Arial" text-anchor="middle"/><g fill="#555753"><text font-size="2969.76" letter-spacing="0" line-height="125%" word-spacing="0" transform="scale(1.05082.95163)" x="-12771.68" y="-4738.93" font-family="Gentium Book Basic"><tspan x="-12771.68" y="-4738.93"/></text><text x="1346.52" y="-27040.35" font-size="1079.18" transform="scale(4.21677.23715)" font-family="Arial" text-anchor="middle"/><text font-size="1589.85" letter-spacing="0" line-height="125%" word-spacing="0" transform="scale(1.05082.95163)" x="-3388.88" y="-5561.95" font-family="Gentium Book Basic"><tspan x="-3388.88" y="-5561.95"/></text><text x="1580.12" y="-26615.36" font-size="577.66" transform="scale(4.21677.23715)" font-family="Arial" text-anchor="middle"/><text font-size="4644.62" letter-spacing="0" line-height="125%" word-spacing="0" x="-39378.45" y="-1724.78" font-family="Gentium Book Basic"><tspan x="-39378.45" y="-1724.78"/></text><text x="-2729.62" y="-19470.02" font-size="1687.61" transform="scale(4.0128.2492)" font-family="Arial" text-anchor="middle"/></g><g fill="#000"><text font-size="4838.07" letter-spacing="0" line-height="125%" word-spacing="0" x="-25225.58" y="-13925.28" font-family="Gentium Book Basic" stroke="#cd1d31" stroke-width="23.22"><tspan x="-25225.58" y="-13925.28"/></text><text x="1092.42" y="-68951.72" font-size="1757.98" transform="scale(4.0128.2492)" font-family="Arial" text-anchor="middle" stroke="none"/><text font-size="4838.07" letter-spacing="0" line-height="125%" word-spacing="0" x="-25360.28" y="-13015.16" font-family="Gentium Book Basic" stroke="#cd1d31" stroke-width="23.22"><tspan x="-25360.28" y="-13015.16"/></text><text x="1058.82" y="-65299.67" font-size="1757.98" transform="scale(4.0128.2492)" font-family="Arial" text-anchor="middle" stroke="none"/></g><g transform="matrix(23.2231 0 0 23.2231.058-603.8)" fill="#555753" stroke="#cd1d31"><text font-size="127.88" letter-spacing="0" line-height="125%" word-spacing="0" transform="scale(1.05082.95163)" x="-474.37" y="-869.39" font-family="Gentium Book Basic"><tspan x="-474.37" y="-869.39"/></text><text x="76.82" y="-3834.23" font-size="46.47" transform="scale(4.21679.23715)" font-family="Arial" text-anchor="middle"/><text font-size="68.46" letter-spacing="0" line-height="125%" word-spacing="0" transform="scale(1.05082.95163)" x="-70.35" y="-904.84" font-family="Gentium Book Basic"><tspan x="-70.35" y="-904.84"/></text><text x="86.87" y="-3815.93" font-size="24.874" transform="scale(4.21679.23715)" font-family="Arial" text-anchor="middle"/><text font-size="200" letter-spacing="0" line-height="125%" word-spacing="0" x="-1616.23" y="-707.42" font-family="Gentium Book Basic"><tspan x="-1616.23" y="-707.42"/></text></g><text x="-2270.03" y="-80896.46" font-size="1687.61" transform="scale(4.0128.2492)" fill="#555753" font-family="Arial" text-anchor="middle" stroke="none"/><g fill="#000"><text font-size="4644.62" letter-spacing="0" line-height="125%" word-spacing="0" x="-8285.95" y="-20600.53" font-family="Gentium Book Basic" stroke="#cd1d31" stroke-width="23.22"><tspan x="-8285.95" y="-20600.53"/></text><text x="5018.5" y="-95215.06" font-size="1687.61" transform="scale(4.0128.2492)" font-family="Arial" text-anchor="middle" stroke="none"/><text font-size="4644.62" letter-spacing="0" line-height="125%" word-spacing="0" x="12606.03" y="-23476.01" font-family="Gentium Book Basic" stroke="#cd1d31" stroke-width="23.22"><tspan x="12606.03" y="-23476.01"/></text><text x="10224.87" y="-106753.65" font-size="1687.61" transform="scale(4.0128.2492)" font-family="Arial" text-anchor="middle" stroke="none"/></g><g fill-rule="evenodd" stroke="none"><rect width="510.91" height="510.91" rx="50.12" x=".058" fill="#7ac943"/><path d="m311.38 69.66c-6.781 0-13.65 2.056-18.875 7.281l-109.59 109.59-50.06 49.34c-8.291 8.291-9.298 20.491-4.375 30.5 1.254 2.531 2.262 5.137 4.375 7.25l2.188 1.469v.719c.441.534.958.958 1.469 1.469.441.534.958.958 1.469 1.469l2.156 2.188c.441.534.958.958 1.469 1.469.441.534.958.927 1.469 1.438l1.469.719c.372.418.324 1.051.719 1.469.441.534.958.958 1.469 1.469l2.188 2.188c.441.534.927.958 1.438 1.469.441.534.958.958 1.469 1.469l2.188 2.156c.441.534.958.958 1.469 1.469l2.188 2.188 1.469 1.469c.441.534.927.958 1.438 1.469l2.188 2.188c.441.534.958.927 1.469 1.438l2.188 1.469.719.719v.719l.719.719c.441.534.958.958 1.469 1.469l2.188 2.188c.441.534.958.958 1.469 1.469.441.534.927.958 1.438 1.469l2.188 2.156c.441.534.958.958 1.469 1.469l2.188 2.188c.441.534.958.958 1.469 1.469.441.534.958.958 1.469 1.469l2.156 2.188c.441.534.958.927 1.469 1.438l2.188 2.188 1.469 1.469c.441.534.958.958 1.469 1.469l2.188 2.188c.441.534.927.958 1.438 1.469l2.188 1.438v.719l1.469.75v.719c.441.534.958.927 1.469 1.438l2.188 2.188c.441.534.958.958 1.469 1.469.441.534.927.958 1.438 1.469l2.188 2.188c.441.534.958.958 1.469 1.469l2.188 2.156c.441.534.958.958 1.469 1.469.441.534.927.958 1.438 1.469l2.188 2.188c.441.534.958.958 1.469 1.469l2.188 2.188 1.469 1.438c.441.534.958.958 1.469 1.469l2.188 2.188c.441.534.927.958 1.438 1.469l1.469 1.469.719.719.719.719.719.719c.441.534.958.958 1.469 1.469l2.188 2.156c.441.534.958.958 1.469 1.469.441.534.958.958 1.469 1.469l2.156 2.188c.441.534.958.958 1.469 1.469l2.188 2.188 1.469 1.438c.441.534.958.958 1.469 1.469l2.188 2.188c.441.534.927.958 1.438 1.469l.719.719.719.719.75.719c.441.534.927.958 1.438 1.469.441.534.958.958 1.469 1.469l2.188 2.188c.441.534.958.927 1.469 1.438.441.534.958.958 1.469 1.469l.719.719.719.719.719.719c.441.534.958.958 1.469 1.469l2.156 2.188c.441.534.958.958 1.469 1.469.441.534.958.958 1.469 1.469l2.188 2.156c.441.534.958.958 1.469 1.469l2.188 2.188 1.438 1.469c.441.534.958.958 1.469 1.469l2.188 2.188c.441.534.958.927 1.469 1.438l.719.719.719.75.719.719.719.719.719.719c.441.534.958.927 1.469 1.438l2.188 2.188c.441.534.958.958 1.469 1.469.441.534.927.958 1.438 1.469l2.188 2.188c.441.534.958.958 1.469 1.469l.719.719 1.469 1.438c.441.534.958.958 1.469 1.469.441.534.958.958 1.469 1.469l.719.719 1.438 1.469c.441.534.958.958 1.469 1.469l.719.719 1.469 1.469 1.469 1.438c.441.534.958.958 1.469 1.469l.719.719 1.469 1.469c.441.534.927.958 1.438 1.469l1.469 1.469.719.719.719.719.719.719c.441.534.958.958 1.469 1.469l.719.719 1.469 1.469c.441.534.958.927 1.469 1.438.163.139.556-.139.719 0 .348.395.347 1.074.719 1.469l.719.719 1.469 1.469c.441.534.958.958 1.469 1.469l.719.719 1.438 1.469c.441.534.958.958 1.469 1.469.441.534.958.927 1.469 1.438l.719.719 1.469 1.469c.441.534.958.958 1.469 1.469l.719.719 1.469 1.469 1.438 1.469c.441.534.958.958 1.469 1.469l.719.719 1.469 1.438c.441.534.958.958 1.469 1.469.163.139.556-.139.719 0l.719 1.469.719.719.719.719.719.719c.441.534.958.958 1.469 1.469l.719.719 1.469 1.469c.441.534.958.958 1.469 1.469.163.139.556-.139.719 0 .348.395.347 1.043.719 1.438l.719.719 1.469 1.469c.441.534.927.958 1.438 1.469l.719.719 1.469 1.469 1.469 1.469c.441.534.958.958 1.469 1.469l.719.719 1.469 1.438c.441.534.927.958 1.438 1.469l.75.719.719.719.719.719c.441.534.927.958 1.438 1.469.113.136.254.25.375.375h90.78c27.764 0 50.13-22.361 50.13-50.12v-202.06h-.469l-1.469-1.438v-.75c-.093-.116-.626.116-.719 0l-.719-1.438h-.719c-.534-.534-.911-.981-1.469-1.469l-.719-.719v-.719l-.719-.719-1.469-1.469h-.719v-.719l-1.438-.719v-.719l-1.469-1.469-.719-.719h-.719l-.719-.719-.719-.719c-.139-.163.139-.579 0-.719l-.719-.719-1.469-1.469h-.719c-.534-.534-.911-.981-1.469-1.469v-.719l-1.469-1.469-.719-.719h-.719l-.719-.719-.719-.719c-.139-.163.139-.579 0-.719l-.719-.719-.719-.719c-.093-.093-.626.093-.719 0l-.719-.719c-.534-.534-.911-.981-1.469-1.469v-.719l-.719-.719-.719-.719-1.469-1.469h-.719l-1.469-1.469v-.719l-.719-.719c-.093-.093-.626.093-.719 0-.139-.116.139-.603 0-.719h-.719c-.534-.534-.888-.95-1.469-1.438l-.719-.75c-.139-.163.139-.579 0-.719l-.719-.719-1.469-1.438h-.719v-.719l-1.438-.719v-.75l-1.469-1.438-1.469-1.469h-.719v-.719l-.719-.719-.719-.719-1.469-1.469h-.719c-.534-.534-.911-.981-1.469-1.469l-.719-.719v-.719l-.719-.719-.719-.719h-.719l-.719-.719-1.469-1.469v-.719c-.093-.116-.626.116-.719 0l-.719-1.469h-.719c-.534-.534-.911-.981-1.469-1.469v-.719l-.719-.719-.719-.719-1.469-1.438h-.719l-1.469-1.469v-.719l-1.438-1.469h-.719c-.534-.534-.888-.981-1.469-1.469l-.719-.719v-.719l-.719-.719-1.469-1.469h-.719v-.719l-1.469-.719v-.719l-1.469-1.469-2.188-1.469-.719-.719c-.139-.163.139-.579 0-.719l-.719-.719-.719-.719h-.719l-.719-.719c-.534-.534-.911-.981-1.469-1.469l-.719-.719c-.139-.163.139-.579 0-.719l-.719-.719-.719-.719h-.719l-.719-.719-1.469-1.469v-.719c-.093-.116-.626.116-.719 0l-.719-1.469h-.719c-.534-.534-.911-.95-1.469-1.438l-.719-.719-.719-1.469-.719-.719h-.719l-.719-.719-.719-.719v-.719h-.719v-.719l-1.469-1.469-.719-.719h-.719l-.719-.719-.719-.719c-.139-.163.139-.579 0-.719l-.719-.719-1.469-1.469h-.719v-.719l-1.469-.719v-.719l-1.438-1.469-.719-.719h-.719l-.719-.719-.75-.719c-.139-.163.139-.579 0-.719l-.719-.719-.719-.719h-.719l-.719-.719c-.534-.534-.88-.981-1.438-1.469v-.719l-.75-.719-.719-.719-1.438-1.469h-.719l-1.469-1.469v-.719c-.093-.116-.626.116-.719 0l-.719-1.469h-.719c-.534-.534-.911-.981-1.469-1.469l-.719-.719v-.719l-.719-.719-1.469-1.469h-.719v-.719l-1.469-.719v-.719l-1.469-1.469-.719-.719h-.719l-.719-.719-.719-.719c-.139-.163.139-.579 0-.719l-.719-.719-1.469-1.469h-.719c-.534-.534-.911-.95-1.469-1.438v-.719l-1.438-1.469-.719-.719h-.719l-.75-.719-.719-.719v-.719l-.719-.719-.719-.719h-.719l-.719-.719c-.534-.534-.911-.981-1.469-1.469v-.719l-.719-.719-.719-.719-1.438-1.469h-.719l-1.469-1.469v-.719l-.719-.719h-.719c-.255-.232-.463-.51-.719-.719-.534-.534-.888-.981-1.469-1.469l-.719-.719-.719-1.469-1.469-1.469h-.719v-.719l-1.469-1.438-1.469-1.469-2.188-1.469-1.438-2.188-2.188-1.469c-.534-.534-.911-.981-1.469-1.469l-1.469-2.156-2.188-1.469-1.469-2.188-2.156-1.469c-.534-.534-.911-.981-1.469-1.469l-1.469-2.188-2.188-1.438-1.469-2.188c-5.202-5.202-11.344-7.281-18.12-7.281l-.969-1.031" fill-opacity=".235"/><path d="m311.11 69.67c6.781 0 13.144 2.346 18.346 7.548l48.583 48.583c10.404 10.404 10.404 27.38 0 37.784l-91.75 91.75 91.75 91.75c10.404 10.404 10.404 27.38 0 37.784l-48.583 48.583c-10.404 10.404-26.289 10.404-36.693 0l-111.19-111.19-48.583-48.583c-10.404-10.404-10.404-27.38 0-37.784l49.651-49.651 110.1-109.03c5.202-5.202 11.565-7.548 18.346-7.548" fill="#fff"/></g></g></svg>